<svg viewBox="0 0 32 32" fill="none" xmlns="http://www.w3.org/2000/svg">
  <rect width="32" height="32" rx="8" fill="#0B1D3A"/>
  <path d="M16 3 A13 13 0 1 0 4 22"
    stroke="rgba(255,255,255,0.2)" stroke-width="2.5"
    stroke-linecap="round" fill="none"/>
  <path d="M16 3 A13 13 0 0 1 28 21"
    stroke="#10B5A6" stroke-width="2.5"
    stroke-linecap="round" fill="none"/>
  <circle cx="16" cy="3"  r="2" fill="#2563EB"/>
  <circle cx="28" cy="21" r="2" fill="#10B981"/>
  <path d="M16 20 C16 20 11 16.5 11 13.5 C11 11.5 12.5 10 14.5 10 C15.3 10 16 10.7 16 10.7 C16 10.7 16.7 10 17.5 10 C19.5 10 21 11.5 21 13.5 C21 16.5 16 20 16 20Z"
    fill="#10B5A6"/>
</svg>
